<svg xmlns="http://www.w3.org/2000/svg" width="40" height="48.04" viewBox="0 0 40 48.04">
  <g id="access_protction" data-name="access protction" transform="translate(-4 0.003)">
    <path id="Path_164" data-name="Path 164" d="M43.21,4C22.89-.26,24.11,0,23.8,0L4.8,4A1,1,0,0,0,4,5V21.08A28.08,28.08,0,0,0,23.7,48c2.08.66,20.3-7.48,20.3-26.87V5A1,1,0,0,0,43.21,4ZM42,21.08A26.09,26.09,0,0,1,24,46,26.09,26.09,0,0,1,6,21.08V5.81L24,2,42,5.81Z" fill="#3eafff"/>
    <path id="Path_165" data-name="Path 165" d="M9.79,8.08a1,1,0,0,0-.79,1v12A23,23,0,0,0,23.63,42.63C25.52,43.37,39,35.88,39,21.08v-12a1,1,0,0,0-.79-1C23,4.87,24.11,5.07,23.8,5.13ZM37,9.87V21.08A21.06,21.06,0,0,1,24,40.62,21.06,21.06,0,0,1,11,21.08V9.87L24,7.13Z" fill="#3eafff"/>
    <path id="Path_166" data-name="Path 166" d="M21.28,30c5.52,0,6.22.26,7-.77s.41-1.5-1-7a4,4,0,1,0-6.66,0c-1.38,5.53-1.76,6-1,7A2,2,0,0,0,21.28,30Zm1.23-8.69a2,2,0,1,1,3,0c-.46.53-.35.38,1.23,6.69H21.28c1.58-6.32,1.72-6.16,1.23-6.69Z" fill="#3eafff"/>
  </g>
</svg>
