<svg xmlns="http://www.w3.org/2000/svg" width="47.98" height="48.027" viewBox="0 0 47.98 48.027">
  <g id="Cloud_infected" data-name="Cloud infected" transform="translate(0.019 0.019)">
    <path id="Path_78" data-name="Path 78" d="M38,34a10,10,0,0,0,1.9-19.81A16,16,0,0,0,8.43,12.3,11,11,0,0,0,11,34h3v4H9a1,1,0,0,0-1,1v3.18a3,3,0,1,0,2,0V40h5a1,1,0,0,0,1-1V34h4v8.18a3,3,0,1,0,2,0V34h4V45a1,1,0,0,0,1,1h5.18a3,3,0,1,0,0-2H28V34h4v5a1,1,0,0,0,1,1h5.18a3,3,0,1,0,0-2H34V34ZM10,45a1,1,0,1,1-1-1A1,1,0,0,1,10,45Zm25-1a1,1,0,1,1-1,1A1,1,0,0,1,35,44Zm6-6a1,1,0,1,1-1,1A1,1,0,0,1,41,38ZM21,46a1,1,0,1,1,1-1A1,1,0,0,1,21,46ZM11,32A9,9,0,0,1,9.44,14.14a1,1,0,0,0,.81-.8A14,14,0,0,1,38,15.12a1,1,0,0,0,.89.93A8,8,0,0,1,38,32Z" fill="#3eafff"/>
    <path id="Path_79" data-name="Path 79" d="M24,9a10.08,10.08,0,0,0-10,8.81,5.28,5.28,0,0,0,.75,3c.2.39.1.62-.12,1.48A3,3,0,0,0,17,26a3,3,0,0,0,3,3h8a3,3,0,0,0,3-3c0-.2.92,0,1.8-1.15a3.45,3.45,0,0,0,.35-3.38,1.64,1.64,0,0,1,.32-1.18C35.5,16.23,31,9,24,9Zm7.68,10.4-.24.49c-.89,1.77.46,2.87-.21,3.73a1,1,0,0,1-.79.38H30a1,1,0,0,0-1,1v1a1,1,0,0,1-1,1H27V26a1,1,0,0,0-2,0v1H23V26a1,1,0,0,0-2,0v1H20a1,1,0,0,1-1-1V25a1,1,0,0,0-1-1h-.44a1,1,0,0,1-1-1.24,3.58,3.58,0,0,0,0-2.87A3.82,3.82,0,0,1,16,18.11,8.06,8.06,0,0,1,24,11C29.67,11,33,16.82,31.68,19.4Z" fill="#3eafff"/>
    <path id="Path_80" data-name="Path 80" d="M20.5,17A1.5,1.5,0,1,0,22,18.5,1.5,1.5,0,0,0,20.5,17Z" fill="#3eafff"/>
    <path id="Path_81" data-name="Path 81" d="M27.5,17A1.5,1.5,0,1,0,29,18.5,1.5,1.5,0,0,0,27.5,17Z" fill="#3eafff"/>
    <path id="Path_82" data-name="Path 82" d="M24.89,21.55a1,1,0,0,0-1.78,0l-.5,1A1,1,0,0,0,24,23.87a1,1,0,0,0,1.39-1.32Z" fill="#3eafff"/>
  </g>
</svg>
