<svg id="encryption_folder" data-name="encryption folder" xmlns="http://www.w3.org/2000/svg" width="48" height="48" viewBox="0 0 48 48">
  <path id="Path_175" data-name="Path 175" d="M28.71,33.29a1,1,0,0,0-1.42,1.42C30.41,37.82,30.42,38,31,38s.08.25,7.65-6.24a1,1,0,0,0-1.3-1.52l-6.3,5.4Z" fill="#3eafff"/>
  <path id="Path_176" data-name="Path 176" d="M44,4H21.27l-.59-1.48A4,4,0,0,0,17,0H4A4,4,0,0,0,0,4V38a4,4,0,0,0,4,4H25.1c2.77,3.91,7.1,6,7.9,6s5.09-2,7.9-6H44a4,4,0,0,0,4-4V8A4,4,0,0,0,44,4ZM42,32.23a14.89,14.89,0,0,1-9,13.69,14.88,14.88,0,0,1-9-13.69V25.82L33,24l9,1.8ZM46,38a2,2,0,0,1-2,2H42.11C44.44,35.5,44,32.27,44,25a1,1,0,0,0-.8-1c-11-2.2-10.11-2.06-10.39-2l-10,2a1,1,0,0,0-.8,1c0,7.09-.45,10.48,1.89,15H4a2,2,0,0,1-2-2V4A2,2,0,0,1,4,2H17a2,2,0,0,1,1.85,1.26C22.3,12,22.08,12,23,12H44a2,2,0,0,1,2,2Zm0-27.44c-1.35-.79-.45-.56-22.32-.56L22.07,6H44a2,2,0,0,1,2,2Z" fill="#3eafff"/>
</svg>
