<svg xmlns="http://www.w3.org/2000/svg" width="47.925" height="48.022" viewBox="0 0 47.925 48.022">
  <g id="File_data" data-name="File data" transform="translate(-0.075 0.022)">
    <path id="Path_105" data-name="Path 105" d="M48,7.94c0-.56,0-.34-7.28-7.65C40.28-.14,42.22,0,13,0a1,1,0,0,0-1,1V23.07A8,8,0,0,0,5.64,34.13L.88,38.88a3,3,0,0,0,4.24,4.24l4.75-4.76a7.62,7.62,0,0,0,2.13.57V47a1,1,0,0,0,1,1H47a1,1,0,0,0,1-1ZM44.59,7H41V3.41ZM13,25a6,6,0,1,1-6,6,6,6,0,0,1,6-6ZM3.7,41.71A1,1,0,0,1,2,41c0-.56,0-.39,4.69-5.1A7.84,7.84,0,0,0,8.1,37.31ZM14,46V38.93a8,8,0,0,0,0-15.86V2H39V8a1,1,0,0,0,1,1h6V46Z" fill="#3eafff"/>
    <path id="Path_106" data-name="Path 106" d="M25,21a3,3,0,0,0,3-3V16a3,3,0,1,0-6,0v2a3,3,0,0,0,3,3Zm-1-5a1,1,0,0,1,2,0v2a1,1,0,0,1-2,0Z" fill="#3eafff"/>
    <path id="Path_107" data-name="Path 107" d="M28,28V26a3,3,0,1,0-6,0v2a3,3,0,1,0,6,0Zm-2,0a1,1,0,0,1-2,0V26a1,1,0,0,1,2,0Z" fill="#3eafff"/>
    <path id="Path_108" data-name="Path 108" d="M29,33a3,3,0,0,0-3,3v2a3,3,0,0,0,6,0V36A3,3,0,0,0,29,33Zm1,5a1,1,0,0,1-2,0V36a1,1,0,0,1,2,0Z" fill="#3eafff"/>
    <path id="Path_109" data-name="Path 109" d="M33,23a3,3,0,0,0-3,3v2a3,3,0,1,0,6,0V26A3,3,0,0,0,33,23Zm1,5a1,1,0,0,1-2,0V26a1,1,0,0,1,2,0Z" fill="#3eafff"/>
    <path id="Path_110" data-name="Path 110" d="M41,33a3,3,0,0,0-3,3v2a3,3,0,0,0,6,0V36A3,3,0,0,0,41,33Zm1,5a1,1,0,0,1-2,0V36a1,1,0,0,1,2,0Z" fill="#3eafff"/>
    <path id="Path_111" data-name="Path 111" d="M41,13a3,3,0,0,0-3,3v2a3,3,0,0,0,6,0V16A3,3,0,0,0,41,13Zm1,5a1,1,0,0,1-2,0V16a1,1,0,0,1,2,0Z" fill="#3eafff"/>
    <path id="Path_112" data-name="Path 112" d="M32,20V14a1,1,0,0,0-2,0v6a1,1,0,0,0,2,0Z" fill="#3eafff"/>
    <path id="Path_113" data-name="Path 113" d="M34,14v6a1,1,0,0,0,2,0V14a1,1,0,0,0-2,0Z" fill="#3eafff"/>
    <path id="Path_114" data-name="Path 114" d="M40,30V24a1,1,0,0,0-2,0v6a1,1,0,0,0,2,0Z" fill="#3eafff"/>
    <path id="Path_115" data-name="Path 115" d="M34,34v6a1,1,0,0,0,2,0V34a1,1,0,0,0-2,0Z" fill="#3eafff"/>
    <path id="Path_116" data-name="Path 116" d="M22,34v6a1,1,0,0,0,2,0V34a1,1,0,0,0-2,0Z" fill="#3eafff"/>
    <path id="Path_117" data-name="Path 117" d="M42,24v6a1,1,0,0,0,2,0V24a1,1,0,0,0-2,0Z" fill="#3eafff"/>
  </g>
</svg>
