<svg xmlns="http://www.w3.org/2000/svg" width="465" height="529.847" viewBox="0 0 465 529.847">
  <g id="humaaans_sitting-8" data-name="humaaans/sitting-8" transform="translate(-9 -48)">
    <g id="A-Human_Sitting" data-name="A-Human/Sitting" transform="translate(474 577.847) rotate(180)">
      <g id="Head_Front_Short-2" data-name="Head/Front/Short-2" transform="translate(124.949 403.316)">
        <g id="Head" transform="translate(6.327)">
          <path id="Path_15335" data-name="Path 15335" d="M13.068,60.909C5.78,69.463.847,79.947,1.671,91.694c2.375,33.848,49.492,26.4,58.657,9.318S68.4,40.6,56.56,37.542c-4.724-1.218-14.787,1.765-25.029,7.939L37.959,0H0Z" fill="#915b3c"/>
        </g>
        <path id="Hair" d="M16.478,0C11.713,21.2-1.859,35.644.214,45.117Q2.287,54.591,11.263,56.9,15.906,75.682,41.21,72.877c25.3-2.8,40.748-13.313,34.079-36.437-6.131,0-13.532,2.217-23.767-1.582q-4.871-1.808-6.968-11.214H39.93q-6.733,11.162-13.278,8.2T23.676,17.475L21.4,0Z" transform="translate(0 53.289)" fill="#191847"/>
      </g>
      <g id="Bottom_Sitting_Baggy-Pants" data-name="Bottom/Sitting/Baggy-Pants" transform="translate(0 0)">
        <g id="Objects_Seat_Cube-2" data-name="Objects/Seat/Cube-2" transform="translate(0 9.49)">
          <path id="Seat" d="M25.306,196.122H207.194A25.306,25.306,0,0,0,232.5,170.816V25.306A25.305,25.305,0,0,0,207.194,0H25.306A25.306,25.306,0,0,0,0,25.306v145.51A25.306,25.306,0,0,0,25.306,196.122Zm25.306-44.286a6.327,6.327,0,0,1-6.327-6.327v-94.9a6.327,6.327,0,0,1,6.327-6.327H181.888a6.327,6.327,0,0,1,6.327,6.327v94.9a6.327,6.327,0,0,1-6.327,6.327Z" fill="#c5cfd6"/>
        </g>
        <path id="LegLower" d="M104.639,0q-46.775,57.119-63.3,84.69c-18.861,31.473-34.3,59.479-39.169,70.176-11.617,25.51,26.744,37.456,35.425,25.557q19.71-27.014,84.189-170.012Z" transform="translate(284.694 17.398)" fill="#b28b67"/>
        <path id="LegLower-2" data-name="LegLower" d="M59.72,0,1.685,146.085c-12.413,26.63,47.53,44.135,56.651,31.742,20.71-28.136,69.933-139.13,76.1-147.513Z" transform="translate(265.714 28.469)" fill="#2f3676"/>
        <g id="Lower-Leg" transform="matrix(0.777, -0.629, 0.629, 0.777, 163.343, 53.006)">
          <path id="LegLower-3" data-name="LegLower" d="M2.854,8.435C1.262,28.365-1.7,97.357,1.263,129.29c.85,9.176,1.746,18.049,2.649,26.372,2.684,24.739,48.555,23.957,44.912.454C39.753,97.584,23.786,15.555,22.641,8.468,21.037-1.466,3.855-4.09,2.854,8.435Z" transform="translate(0)" fill="#915b3c"/>
        </g>
        <g id="Accessories_Shoe_Flat-Sneaker" data-name="Accessories/Shoe/Flat-Sneaker" transform="matrix(0.866, -0.5, 0.5, 0.866, 159.669, 46.546)">
          <path id="shoe" d="M2.654,23.089Q0,16,0,12.486A79.361,79.361,0,0,1,1.425,0H90.633q3.477,11.5-4.015,12.412T74.171,14.068L32.708,32.552a1.581,1.581,0,0,1-2.089-.8L30.6,31.71l-2.665-6.465Q21,22.009,16.665,22.009q-3.523,0-9.731,2.846h0A3.163,3.163,0,0,1,2.741,23.3Q2.694,23.195,2.654,23.089Z" transform="translate(0)" fill="#e4e4e4"/>
        </g>
        <g id="Accessories_Shoe_Flat-Sneaker-2" data-name="Accessories/Shoe/Flat-Sneaker" transform="translate(373.265)">
          <path id="shoe-2" data-name="shoe" d="M2.654,23.089Q0,16,0,12.486A79.361,79.361,0,0,1,1.425,0H90.632q3.477,11.5-4.015,12.412T74.171,14.068L32.708,32.552a1.581,1.581,0,0,1-2.089-.8L30.6,31.71l-2.665-6.465Q21,22.009,16.665,22.009q-3.523,0-9.731,2.846h0A3.163,3.163,0,0,1,2.741,23.3Q2.694,23.195,2.654,23.089Z" transform="translate(0)" fill="#e4e4e4"/>
        </g>
        <path id="Leg-and-Butt" d="M151.361,124.1q-72.353,11.787-96.924,16.12C7.741,148.453-5.875,173.581,2.175,228.4H88.21q17.079-4.932,142.717-61c15.07-7.481,12.262-29.538,9.509-36.805q-.168-.445-76.216-130.6L93.84,44.836l57.654,73.98Q153.776,123.416,151.361,124.1Z" transform="translate(95.155 43.158)" fill="#5c63ab"/>
      </g>
      <g id="Body_Hoodie" data-name="Body/Hoodie" transform="translate(5.002 151.589)">
        <path id="Skin" d="M247.713,140.678l50.451-37.047q20.526-5.54,34.3-13.782c2.168-1.975,4.789-5.977-4.206-5.286s-18.484,1.015-19.726-2.053,4.2-6.736,1.694-10.875q-2.51-4.14-23.7,20.757L236.56,113.11ZM54.005,139.4l33.052-.13Q56.445,40.448,54.005,34.4C50.345,25.332,58.09,11.518,61.4,4.1,50.615-.732,51.764,17.144,38.157,10.814,25.737,5.035,16.289-5.434,1.939,3.42c-1.764,1.088-3.7,5.186.974,8.389C14.55,19.788,31.32,33.754,33.586,38.352Q38.221,47.754,54.005,139.4Z" fill="#915b3c"/>
        <path id="Coat-Back" d="M0,176.605l13.42,3.529C67.792,140.888,95.894,58.812,161.745,19.792L148.448,0C39.789,3.905,4.193,103.9,0,176.605Z" transform="translate(132.54 102.155) rotate(-5)" fill="#3eafff"/>
        <path id="Shirt" d="M0,0H121.012c5.531,0,4.489,7.984,3.688,12.014-9.224,46.5-45.238,96.626-45.238,162.818l-34.905,5.474C15.686,133.872,5.7,76.7,0,0Z" transform="translate(88.314 106.217)" fill="#dde3e9"/>
        <path id="Coat-Front" d="M56.54,201.092q-7.6,2.186-12.044,10.2c-12.758,23.021-8.151,35.7,5.484,39.862s25.793-4.415,47.517-4.415a21.881,21.881,0,0,0,3.247-.222l10.927-.624Q158.7,86.507,137.61,33.214H42.364A324.846,324.846,0,0,0,26.164,0H.211Q-3.453,118.463,56.54,201.092Z" transform="translate(32.746 39.788)" fill="#3eafff"/>
        <path id="Shade" d="M20.741,54.569Q25.234,16.976,35.347,0H0Q9.874,23.025,20.741,54.569Z" transform="translate(75.11 73.002)" fill="rgba(0,0,0,0.1)"/>
      </g>
    </g>
  </g>
</svg>
