<svg xmlns="http://www.w3.org/2000/svg" width="48.017" height="48" viewBox="0 0 48.017 48">
  <g id="Key" transform="translate(0.008)">
    <path id="Path_131" data-name="Path 131" d="M24,0C12.49,0,8.75,15.57,19,20.79V27c0,.6.42.83,1.71,2.13l-1.54,2.32a1,1,0,0,0,.12,1.26l1.42,1.42-1.54,2.32a1,1,0,0,0,.12,1.26l1.42,1.42c-1.65,2.47-2.05,2.79-1.49,3.49C23.57,48.06,23.35,48,24,48c.45,0,.22.09,4.6-3.2.58-.44.4,1.24.4-24C39.27,15.56,35.5,0,24,0Zm3.6,19.24c-.86.38-.6-.92-.6,24.26l-2.82,2.12L21.24,42l1.59-2.4a1,1,0,0,0-.12-1.26l-1.42-1.42,1.54-2.32a1,1,0,0,0-.12-1.26l-1.42-1.42,1.54-2.32a1,1,0,0,0-.12-1.26L21,26.59c0-6.88.2-7-.6-7.35a9,9,0,1,1,7.2,0Z" fill="#3eafff"/>
    <path id="Path_132" data-name="Path 132" d="M24,4a4,4,0,1,0,4,4A4,4,0,0,0,24,4Zm0,6a2,2,0,1,1,2-2A2,2,0,0,1,24,10Z" fill="#3eafff"/>
    <path id="Path_133" data-name="Path 133" d="M38.18,32H32a1,1,0,0,0,0,2h6.18a3,3,0,1,0,0-2ZM42,33a1,1,0,1,1-1-1A1,1,0,0,1,42,33Z" fill="#3eafff"/>
    <path id="Path_134" data-name="Path 134" d="M32,26a1,1,0,0,0,0,2c2.84,0,3.52.2,3.89-.55L37.62,24h4.56a3,3,0,1,0,0-2c-5.63,0-5.71-.17-6.07.55L34.38,26Zm13-4a1,1,0,1,1-1,1A1,1,0,0,1,45,22Z" fill="#3eafff"/>
    <path id="Path_135" data-name="Path 135" d="M42.18,42H37.62c-1.78-3.56-1.8-4-2.62-4H32a1,1,0,0,0,0,2h2.38c1.78,3.56,1.8,4,2.62,4h5.18a3,3,0,1,0,0-2ZM45,44a1,1,0,1,1,1-1A1,1,0,0,1,45,44Z" fill="#3eafff"/>
    <path id="Path_136" data-name="Path 136" d="M16,32H9.82a3,3,0,1,0,0,2H16a1,1,0,0,0,0-2ZM7,34a1,1,0,1,1,1-1A1,1,0,0,1,7,34Z" fill="#3eafff"/>
    <path id="Path_137" data-name="Path 137" d="M16,26H13.62l-1.73-3.45c-.37-.74-.6-.55-6.07-.55a3,3,0,1,0,0,2h4.56l1.73,3.45c.36.73.88.55,3.89.55a1,1,0,1,0,0-2ZM3,24a1,1,0,1,1,1-1A1,1,0,0,1,3,24Z" fill="#3eafff"/>
    <path id="Path_138" data-name="Path 138" d="M16,38c-2.84,0-3.52-.2-3.89.55L10.38,42H5.82a3,3,0,1,0,0,2c5.63,0,5.71.17,6.07-.55L13.62,40H16a1,1,0,0,0,0-2ZM3,44a1,1,0,1,1,1-1A1,1,0,0,1,3,44Z" fill="#3eafff"/>
  </g>
</svg>
