<svg id="logo6" xmlns="http://www.w3.org/2000/svg" width="232.544" height="45.715" viewBox="0 0 232.544 45.715">
  <path id="Path_213" data-name="Path 213" d="M29.39,14.143A6.267,6.267,0,0,0,27.6,19.164l-.031-.031a7.447,7.447,0,0,1-8.047,8.047l.031.031A6.305,6.305,0,1,0,25.243,32.9l.033.031a7.447,7.447,0,0,1,8.047-8.047l-.033-.031a6.293,6.293,0,1,0-3.9-10.71Z" transform="translate(5.495 5.92)" fill="#354f6f"/>
  <path id="Path_214" data-name="Path 214" d="M23.652,30.084l-.033-.031a6.225,6.225,0,0,0,6.818-6.813l.033.031a7.447,7.447,0,0,1,8.047-8.047l-.033-.031A6.305,6.305,0,1,0,32.8,9.505l-.031-.033a7.445,7.445,0,0,1-8.047,8.047l.031.033a6.225,6.225,0,0,0-6.818,6.813l-.031-.031a7.449,7.449,0,0,1-8.047,8.047l.031.031A6.305,6.305,0,1,0,15.572,38.1l.033.031a7.447,7.447,0,0,1,8.047-8.047Z" transform="translate(-1.414 -0.995)" fill="#354f6f"/>
  <path id="Path_215" data-name="Path 215" d="M12.819,27.316A6.261,6.261,0,0,0,14.61,22.3l.033.031a7.447,7.447,0,0,1,8.051-8.047l-.033-.031A6.3,6.3,0,1,0,16.973,8.56l-.031-.031a7.447,7.447,0,0,1-8.047,8.047l.031.031a6.293,6.293,0,1,0,3.9,10.71Z" transform="translate(-2.07 -1.668)" fill="#354f6f"/>
  <path id="Path_216" data-name="Path 216" d="M39.317,6.655h5.092V31.432H39.317Z" transform="translate(24.537 1.894)" fill="#354f6f"/>
  <path id="Path_217" data-name="Path 217" d="M43.969,19.922a9,9,0,1,1,9,8.959,8.894,8.894,0,0,1-9-8.959Zm12.9,0a3.905,3.905,0,1,0-3.9,4.013,3.808,3.808,0,0,0,3.9-4.013Z" transform="translate(27.86 4.92)" fill="#354f6f"/>
  <path id="Path_218" data-name="Path 218" d="M73.911,11.411V27.526c0,5.7-4.447,8.112-8.961,8.112a8.678,8.678,0,0,1-8.044-4.114l4.344-2.512A3.878,3.878,0,0,0,65.12,31.15a3.382,3.382,0,0,0,3.835-3.631V25.968A6.028,6.028,0,0,1,64,28.174a8.625,8.625,0,0,1,0-17.241,6.028,6.028,0,0,1,4.956,2.206V11.408Zm-4.954,8.145A4.114,4.114,0,1,0,64.851,23.5a3.84,3.84,0,0,0,4.106-3.943Z" transform="translate(36.201 4.945)" fill="#354f6f"/>
  <path id="Path_219" data-name="Path 219" d="M67.982,19.922a9,9,0,1,1,9,8.959,8.894,8.894,0,0,1-9-8.959Zm12.9,0a3.905,3.905,0,1,0-3.9,4.013,3.808,3.808,0,0,0,3.9-4.013Z" transform="translate(45.014 4.92)" fill="#354f6f"/>
  <path id="Path_220" data-name="Path 220" d="M79.861,9.829a3.055,3.055,0,1,1,3.055,3.055,3.086,3.086,0,0,1-3.055-3.055Zm.514,4.548h5.093V31.349h-5.1Z" transform="translate(53.5 1.979)" fill="#354f6f"/>
  <path id="Path_221" data-name="Path 221" d="M103.565,19.9a8.522,8.522,0,0,1-8.112,8.959A6.369,6.369,0,0,1,90.4,26.785V35.17H85.305V11.411H90.4v1.594a6.373,6.373,0,0,1,5.056-2.069,8.52,8.52,0,0,1,8.112,8.961Zm-5.092,0a4.039,4.039,0,1,0-4.037,4.14,3.874,3.874,0,0,0,4.037-4.14Z" transform="translate(57.389 4.946)" fill="#354f6f"/>
  <path id="Path_222" data-name="Path 222" d="M111.1,23.287c0,3.9-3.393,5.566-7.058,5.566a7.432,7.432,0,0,1-7.3-4.039l4.411-2.512a2.789,2.789,0,0,0,2.88,2c1.221,0,1.833-.374,1.833-1.051,0-1.869-8.351-.883-8.351-6.755,0-3.7,3.124-5.566,6.653-5.566a7.423,7.423,0,0,1,6.617,3.631l-4.344,2.342a2.464,2.464,0,0,0-2.273-1.493c-.883,0-1.426.343-1.426.95C102.754,18.3,111.1,17.007,111.1,23.287Z" transform="translate(65.562 4.948)" fill="#354f6f"/>
  <path id="Path_223" data-name="Path 223" d="M122.756,11.209V28.181h-5.092v-1.6a5.8,5.8,0,0,1-4.852,2.071c-3.429,0-6.343-2.443-6.343-7.029V11.209h5.092v9.672a2.8,2.8,0,0,0,2.952,3.086c1.867,0,3.156-1.085,3.156-3.5V11.214Z" transform="translate(72.508 5.148)" fill="#354f6f"/>
  <path id="Path_224" data-name="Path 224" d="M143.607,17.965v10.42h-5.092V18.406c0-1.7-.814-2.782-2.443-2.782-1.7,0-2.649,1.188-2.649,3.19v9.571h-5.09V18.406c0-1.7-.814-2.782-2.445-2.782-1.7,0-2.647,1.188-2.647,3.19v9.571h-5.092V11.413h5.092v1.56a5.208,5.208,0,0,1,4.548-2.035,5.047,5.047,0,0,1,4.445,2.239,5.591,5.591,0,0,1,4.922-2.239C141.055,10.94,143.607,13.722,143.607,17.965Z" transform="translate(80.852 4.942)" fill="#354f6f"/>
  <path id="Path_225" data-name="Path 225" d="M137.086,14.3a3.778,3.778,0,1,0-3.778-3.778A3.779,3.779,0,0,0,137.086,14.3Z" transform="translate(91.679 1.955)" fill="#354f6f"/>
</svg>
