<svg id="Logo2" xmlns="http://www.w3.org/2000/svg" width="217.409" height="56.672" viewBox="0 0 217.409 56.672">
  <path id="Path_63" data-name="Path 63" d="M46.23,41.484h3.443V65.447H60V68.89H46.23Zm24.5,0A10.329,10.329,0,1,1,60.4,51.813,10.329,10.329,0,0,1,70.727,41.484Zm0,17.215a6.869,6.869,0,1,1,0-.034Zm-6.886,6.783H77.613v3.443H63.841Zm44.071,3.443h-3.443V66.463a13.238,13.238,0,0,1-7.575,2.393A13.772,13.772,0,1,1,107.223,46.08l-2.531,2.255A10.329,10.329,0,1,0,97.014,65.55a9.933,9.933,0,0,0,7.54-3.443h-9.3V58.664h12.688Zm12.67-27.372a6.02,6.02,0,1,1,.034-.069Zm0,17.215a5.417,5.417,0,1,1,.034-.1ZM113.7,65.55h13.772v3.443H113.7Zm20.882-24.067h3.443V68.856h-3.443Zm8.212,0h3.443a2.53,2.53,0,0,1,.534,0,10.329,10.329,0,1,1,0,20.538h-.534v6.886h-3.443Zm3.443,3.443V58.544h.534a6.886,6.886,0,1,0,0-13.652,2.53,2.53,0,0,0-.551.12Zm24.807-1.463-2.548,2.014a3.34,3.34,0,0,0-5.733,1.945V47.7c0,1.515,1.05,2.531,3.1,2.668,7.885.482,11.5,4.183,11.5,9.072v.31a10.157,10.157,0,0,1-17.508,5.888l2.634-2.031a6.2,6.2,0,0,0,4.82,1.963,6.438,6.438,0,0,0,6.748-5.819v-.241c0-4.6-4.51-5.44-8.418-5.819-3.615-.344-6.215-2.6-6.215-5.853V47.7a6.628,6.628,0,0,1,6.766-6.129,6.438,6.438,0,0,1,4.837,1.98Zm19.8,21.9c4.287,0,7.678-4.631,7.678-10.329V41.26h3.443V55.032c0,7.575-4.958,13.686-11.052,13.686s-11.052-6.111-11.052-13.686V41.26H183.3V55.032c-.138,5.784,3.254,10.415,7.523,10.415ZM228.383,68.8H224.94V51.761L217,62.09l-7.936-10.329V68.856h-3.443V41.484l11.362,14.96,11.362-14.96Z" transform="translate(-10.974 -28.004)" fill="#354f6f"/>
  <path id="Path_64" data-name="Path 64" d="M44.48,42.925a9.365,9.365,0,0,0-18.73,0V71.244l7.712,5.526V90.232h3.305V76.77l7.712-5.526ZM41.175,58.763,36.768,63.17V59.038l4.407-4.407ZM29.124,54.631l4.407,4.407V63.17l-4.407-4.407Zm12.051-4.682-6.06,6.06-6.06-6.2V45.679l6.06,6.06,6.06-6.06Zm-6.06-13.083a6.094,6.094,0,0,1,5.853,4.493l-5.853,5.836-5.853-5.836A6.094,6.094,0,0,1,35.115,36.8Zm-6.06,32.709v-6.2l4.407,4.407v4.924Zm7.712,3.15V67.784l4.407-4.407v6.18Z" transform="translate(-25.75 -33.56)" fill="#354f6f"/>
</svg>
