<svg id="logo5" xmlns="http://www.w3.org/2000/svg" width="222.556" height="50.819" viewBox="0 0 222.556 50.819">
  <path id="Path_65" data-name="Path 65" d="M63.87,44.786h5.621V67.515H63.87Zm7.851,14.147c0-5.621,3.448-8.975,8.769-8.975s8.769,3.354,8.769,8.975-3.373,8.994-8.769,8.994S71.721,64.648,71.721,58.933Zm11.9,0c0-3.092-1.218-4.909-3.129-4.909s-3.11,1.874-3.11,4.909S78.56,63.8,80.49,63.8s3.129-1.724,3.129-4.853Zm7.757,9.687h5.4a2.9,2.9,0,0,0,3.035,1.686c2.136,0,3.26-1.162,3.26-2.848V64.31h-.112a5.321,5.321,0,0,1-5.115,3.073c-4.1,0-6.82-3.129-6.82-8.507s2.586-8.769,6.9-8.769a5.378,5.378,0,0,1,5.172,3.3h0V50.276h5.621V67.327c0,4.1-3.616,6.652-8.956,6.652-4.965,0-8.057-2.23-8.376-5.34Zm11.711-9.706c0-2.736-1.255-4.459-3.242-4.459s-3.2,1.705-3.2,4.459,1.2,4.31,3.2,4.31,3.242-1.518,3.242-4.291Zm7.738,0c0-5.621,3.448-8.975,8.769-8.975s8.788,3.354,8.788,8.975-3.373,8.994-8.788,8.994-8.769-3.26-8.769-8.975Zm11.9,0c0-3.092-1.218-4.909-3.129-4.909s-3.017,1.892-3.017,4.947,1.18,4.872,3.092,4.872,3.054-1.743,3.054-4.872Zm7.795-12.723a2.867,2.867,0,1,1,2.923,2.792,2.736,2.736,0,0,1-2.923-2.754Zm0,4.122h5.621v17.2h-5.621Zm26.026,8.6c0,5.621-2.492,8.825-6.764,8.825a5.359,5.359,0,0,1-5.246-3.185h-.112v8.469H138.8V50.276h5.621v3.073h.112a5.378,5.378,0,0,1,5.209-3.316c4.31.075,6.877,3.3,6.877,8.919Zm-5.621,0c0-2.736-1.255-4.478-3.223-4.478s-3.223,1.761-3.242,4.478,1.274,4.459,3.242,4.459,3.223-1.705,3.223-4.422Zm15.271-8.994c4.666,0,7.495,2.211,7.626,5.752h-5.115c0-1.218-1.012-1.986-2.567-1.986s-2.248.6-2.248,1.48.618,1.162,1.874,1.424l3.6.731c3.429.731,4.89,2.117,4.89,4.722,0,3.56-3.242,5.846-8.02,5.846s-7.907-2.286-8.151-5.79H163.5c.169,1.274,1.18,2.024,2.829,2.024s2.4-.543,2.4-1.443-.525-1.087-1.874-1.368l-3.242-.693c-3.354-.693-5.115-2.473-5.115-5.1.037-3.373,3.054-5.565,7.7-5.565Zm26.813,17.557h-5.415v-3.2h-.112a4.89,4.89,0,0,1-4.984,3.579,5.977,5.977,0,0,1-6.3-6.464V50.276h5.621v9.818c0,2.042,1.049,3.129,2.792,3.129a2.867,2.867,0,0,0,2.848-3.242V50.276h5.621Zm2.717-17.2h5.434v3.316h.112a4.984,4.984,0,0,1,4.89-3.635,4.478,4.478,0,0,1,4.778,3.747h.112a5.284,5.284,0,0,1,5.284-3.747,5.453,5.453,0,0,1,5.621,5.846V67.515h-5.621V57.3c0-1.874-.843-2.736-2.417-2.736a2.455,2.455,0,0,0-2.455,2.773V67.515h-5.34V57.228c0-1.724-.843-2.661-2.38-2.661a2.511,2.511,0,0,0-2.492,2.811V67.515h-5.621Z" transform="translate(0.585 -30.468)" fill="#354f6f"/>
  <path id="Path_66" data-name="Path 66" d="M78.205,51.777a24.827,24.827,0,0,0-3.747-6.033,25.352,25.352,0,1,0-35,36.2,24.527,24.527,0,0,0,6,3.429,25.089,25.089,0,0,0,9.5,1.874A25.408,25.408,0,0,0,80.3,61.858a25.089,25.089,0,0,0-2.1-10.081ZM54.933,41.6A20.07,20.07,0,0,1,63.4,43.478h0a8.225,8.225,0,0,1-2.024.581,10.736,10.736,0,0,0-9.088,9.088,5.621,5.621,0,0,1-5.078,4.965A10.736,10.736,0,0,0,38.126,67.2a5.453,5.453,0,0,1-1.48,3.26h0A20.236,20.236,0,0,1,54.952,41.565Zm-15.5,33.371c.225-.206.45-.393.675-.618A10.268,10.268,0,0,0,43.148,68.3a5.471,5.471,0,0,1,1.63-3.41,5.3,5.3,0,0,1,3.391-1.611,10.736,10.736,0,0,0,9.088-9.088,5.471,5.471,0,0,1,1.63-3.579,5.378,5.378,0,0,1,3.429-1.555,10.268,10.268,0,0,0,5.621-2.679,19.692,19.692,0,0,1,4.422,5.209,1.611,1.611,0,0,1-.244.262A5.378,5.378,0,0,1,68.724,53.5a10.7,10.7,0,0,0-9.088,9.088A5.621,5.621,0,0,1,54.6,67.61,10.793,10.793,0,0,0,45.452,76.7a5.884,5.884,0,0,1-.918,2.567A20.4,20.4,0,0,1,39.438,74.974Zm15.5,7.233a20.311,20.311,0,0,1-5.621-.787,10.83,10.83,0,0,0,1.2-3.747,5.621,5.621,0,0,1,5.022-5.022,10.736,10.736,0,0,0,9.106-9.088,5.621,5.621,0,0,1,5.022-5.022,10.7,10.7,0,0,0,4.8-1.874A20.274,20.274,0,0,1,54.933,82.113Z" transform="translate(-29.471 -36.428)" fill="#354f6f"/>
</svg>
