<svg id="Logo4" xmlns="http://www.w3.org/2000/svg" width="242.493" height="48.662" viewBox="0 0 242.493 48.662">
  <path id="Path_44" data-name="Path 44" d="M70.322,69.431a5.461,5.461,0,0,1-3.441-.989,3.215,3.215,0,0,1-1.3-2.7V46.64a.536.536,0,0,1,.6-.6h3.462c.392,0,.577.206.577.6V64.258c0,.783.35,1.175,1.072,1.175a2.967,2.967,0,0,0,.907-.1c.412,0,.639.124.659.495l.309,2.576a.536.536,0,0,1-.495.639,7.769,7.769,0,0,1-2.349.392Z" transform="translate(7.633 -29.856)" fill="#354f6f"/>
  <path id="Path_45" data-name="Path 45" d="M84.922,63.43a9.706,9.706,0,0,1-12.364,0,8.243,8.243,0,0,1,0-11.6,9.747,9.747,0,0,1,12.364,0,8.366,8.366,0,0,1,0,11.581Zm-9.108-2.72a4.389,4.389,0,0,0,5.893,0,4.616,4.616,0,0,0,0-6.058,4.389,4.389,0,0,0-5.893,0,4.616,4.616,0,0,0,0,6.058Z" transform="translate(12.506 -26.06)" fill="#354f6f"/>
  <path id="Path_46" data-name="Path 46" d="M96.231,50.117c.392,0,.577.206.577.6V65.489a6.718,6.718,0,0,1-2.287,5.3,8.655,8.655,0,0,1-6,2.061A9.644,9.644,0,0,1,82.94,71.3a6.182,6.182,0,0,1-2.7-4.121c0-.412,0-.6.556-.6h3.462a.762.762,0,0,1,.68.474A2.7,2.7,0,0,0,86.2,68.518a4.822,4.822,0,0,0,2.308.536,3.647,3.647,0,0,0,2.658-.948,3.5,3.5,0,0,0,.969-2.576v-1.3a6.9,6.9,0,0,1-4.286,1.339,8,8,0,0,1-5.852-2.246,8.243,8.243,0,0,1,0-11.457,8.057,8.057,0,0,1,5.852-2.226,6.924,6.924,0,0,1,4.389,1.422v-.33a.536.536,0,0,1,.577-.6Zm-8,11.787a3.627,3.627,0,0,0,2.823-1.216,5.049,5.049,0,0,0,0-6.182,3.606,3.606,0,0,0-2.8-1.2,3.709,3.709,0,0,0-2.864,1.216,4.369,4.369,0,0,0-1.113,3.091,4.451,4.451,0,0,0,1.092,3.07A3.73,3.73,0,0,0,88.236,61.9Z" transform="translate(22.586 -26.038)" fill="#354f6f"/>
  <path id="Path_47" data-name="Path 47" d="M104.183,63.427a9.747,9.747,0,0,1-12.364,0,8.387,8.387,0,0,1,0-11.6,9.768,9.768,0,0,1,12.364,0,8.366,8.366,0,0,1,0,11.581Zm-9.129-2.72a4.424,4.424,0,0,0,5.914,0,4.678,4.678,0,0,0,0-6.058,4.424,4.424,0,0,0-5.914,0,4.678,4.678,0,0,0,0,6.058Z" transform="translate(32.995 -26.057)" fill="#354f6f"/>
  <path id="Path_48" data-name="Path 48" d="M103.788,50.407a2.988,2.988,0,0,1-3.936,0,2.493,2.493,0,0,1,0-3.627,3.05,3.05,0,0,1,3.936,0,2.493,2.493,0,0,1,0,3.627Zm.433,19a5.543,5.543,0,0,1-3.441-.989,3.256,3.256,0,0,1-1.278-2.7V54.508a.536.536,0,0,1,.6-.6h3.462c.392,0,.577.206.577.6v9.726q0,1.175,1.051,1.175a3.194,3.194,0,0,0,.927-.1c.412,0,.639.124.659.495l.309,2.576a.536.536,0,0,1-.495.639A7.81,7.81,0,0,1,104.221,69.407Z" transform="translate(43.157 -29.832)" fill="#354f6f"/>
  <path id="Path_49" data-name="Path 49" d="M115.07,49.638a8.078,8.078,0,0,1,5.893,2.226,8.449,8.449,0,0,1,0,11.519,8.016,8.016,0,0,1-5.893,2.246,7.089,7.089,0,0,1-4.307-1.339v7.439c0,.392-.206.577-.6.577H106.7a.495.495,0,0,1-.577-.577v-16.9a1.072,1.072,0,0,0-1.216-1.216h-.68q-.68,0-.68-.495V50.689a.659.659,0,0,1,.474-.68,6.182,6.182,0,0,1,2.226-.371,3.812,3.812,0,0,1,3.73,2.061A6.944,6.944,0,0,1,115.07,49.638ZM111.855,60.7a3.936,3.936,0,0,0,5.687,0,4.451,4.451,0,0,0,1.133-3.153,4.389,4.389,0,0,0-1.133-3.153,3.936,3.936,0,0,0-5.687,0,4.554,4.554,0,0,0-1.092,3.153,4.616,4.616,0,0,0,1.092,3.153Z" transform="translate(47.908 -26.054)" fill="#354f6f"/>
  <path id="Path_50" data-name="Path 50" d="M121.776,65.669a9.932,9.932,0,0,1-5.3-1.278,5.028,5.028,0,0,1-2.39-3.647c0-.412.144-.618.6-.618h3.029a.783.783,0,0,1,.68.453c.433,1.113,1.566,1.669,3.38,1.669a3.854,3.854,0,0,0,1.834-.371,1.2,1.2,0,0,0,.7-1.01c0-.536-.33-.907-.989-1.154a11.148,11.148,0,0,0-2.411-.515,22.918,22.918,0,0,1-2.885-.515,4.74,4.74,0,0,1-2.411-1.381,4.41,4.41,0,0,1,.886-6.388,8.49,8.49,0,0,1,4.987-1.319,9.108,9.108,0,0,1,4.863,1.216,4.6,4.6,0,0,1,2.267,3.235q0,.618-.556.618h-3.05a.639.639,0,0,1-.618-.371,2.061,2.061,0,0,0-1.072-1.092,3.627,3.627,0,0,0-1.772-.412,3.585,3.585,0,0,0-1.752.35,1.03,1.03,0,0,0-.659.948,1.319,1.319,0,0,0,.989,1.216,11.169,11.169,0,0,0,2.452.618,26.951,26.951,0,0,1,2.864.536,4.74,4.74,0,0,1,2.411,1.381,3.9,3.9,0,0,1,1.01,2.823,4.121,4.121,0,0,1-1.916,3.586A9.005,9.005,0,0,1,121.776,65.669Z" transform="translate(59.088 -26.094)" fill="#354f6f"/>
  <path id="Path_51" data-name="Path 51" d="M141.529,64.336a.556.556,0,0,1-.474.639,7.954,7.954,0,0,1-2.329.392,4.575,4.575,0,0,1-4.121-1.793,7.46,7.46,0,0,1-5.255,1.793,6.388,6.388,0,0,1-4.822-1.875,6.759,6.759,0,0,1-1.834-4.966V50.468c0-.392.185-.6.577-.6h3.462c.392,0,.577.206.577.6v7.439a3.647,3.647,0,0,0,.886,2.535,3.091,3.091,0,0,0,2.37.968,3.421,3.421,0,0,0,2.473-.907,3.3,3.3,0,0,0,.927-2.452V50.468c0-.392.185-.6.577-.6h3.5c.392,0,.577.206.577.6v9.706c0,.8.35,1.2,1.03,1.2a3.256,3.256,0,0,0,.948-.1.536.536,0,0,1,.68.495Z" transform="translate(68.206 -25.792)" fill="#354f6f"/>
  <path id="Path_52" data-name="Path 52" d="M163.9,64.6a.515.515,0,0,1-.474.639,7.994,7.994,0,0,1-2.37.392,5.5,5.5,0,0,1-3.441-.989,3.215,3.215,0,0,1-1.381-2.7V57.1a3.647,3.647,0,0,0-.866-2.535,2.926,2.926,0,0,0-2.308-.969A2.576,2.576,0,0,0,151,54.5a3.668,3.668,0,0,0-.783,2.432v7.6c0,.392-.186.6-.577.6h-3.483a.536.536,0,0,1-.6-.6V57.1a3.812,3.812,0,0,0-.8-2.535,2.679,2.679,0,0,0-2.061-.969,2.988,2.988,0,0,0-2.267.907,3.4,3.4,0,0,0-.845,2.432v7.6a.536.536,0,0,1-.6.6h-3.359c-.392,0-.577-.206-.577-.6V54.83a1.071,1.071,0,0,0-1.216-1.216h-.68q-.68,0-.68-.495V50.688a.659.659,0,0,1,.474-.68,6.181,6.181,0,0,1,2.226-.371,3.874,3.874,0,0,1,3.668,1.9,6.965,6.965,0,0,1,5.234-1.9,5.914,5.914,0,0,1,4.884,2.184,6.8,6.8,0,0,1,5.4-2.184,6.512,6.512,0,0,1,4.884,1.875,6.718,6.718,0,0,1,1.834,4.966v3.977c0,.783.35,1.175,1.01,1.175a3.091,3.091,0,0,0,.948-.1q.639,0,.68.495Z" transform="translate(78.582 -26.054)" fill="#354f6f"/>
  <path id="Path_53" data-name="Path 53" d="M30.895,59.585a28.21,28.21,0,0,1,54.752,0H83.174A19.968,19.968,0,0,0,71.49,63.15a5.9,5.9,0,0,1-.618.392h-.288a5.9,5.9,0,0,1-.618-.392,20.957,20.957,0,0,0-23.389,0,5.894,5.894,0,0,1-.618.392H45.67a5.9,5.9,0,0,1-.618-.392,19.968,19.968,0,0,0-11.684-3.565Zm47.828,12.92a6.945,6.945,0,0,1,4.451-1.463h3.318V64.427H83.174a13.147,13.147,0,0,0-7.892,2.514,7.5,7.5,0,0,1-8.9,0,14.012,14.012,0,0,0-16.011,0,7.5,7.5,0,0,1-8.9,0,13.147,13.147,0,0,0-8-2.514H30.05v6.615h3.318a6.945,6.945,0,0,1,4.451,1.463,13.971,13.971,0,0,0,15.991,0,6.986,6.986,0,0,1,4.451-1.463,6.9,6.9,0,0,1,4.451,1.463,14.013,14.013,0,0,0,16.011,0Zm0,11.828a6.945,6.945,0,0,1,4.451-1.463h3.318V76.255H83.174a13.147,13.147,0,0,0-7.892,2.514,7.5,7.5,0,0,1-8.9,0,14.013,14.013,0,0,0-16.011,0,7.5,7.5,0,0,1-8.9,0,13.147,13.147,0,0,0-8-2.514H30.05V82.87h3.318a6.945,6.945,0,0,1,4.451,1.463,13.971,13.971,0,0,0,15.991,0A6.986,6.986,0,0,1,58.26,82.87a6.9,6.9,0,0,1,4.451,1.463A14.013,14.013,0,0,0,78.723,84.333Z" transform="translate(-30.05 -38.185)" fill="#354f6f"/>
</svg>
