<svg id="Logo3" xmlns="http://www.w3.org/2000/svg" width="172.478" height="82.037" viewBox="0 0 172.478 82.037">
  <path id="Path_54" data-name="Path 54" d="M38.79,54.79h5.165V80.113H38.79Z" transform="translate(-38.79 -5.538)" fill="#354f6f"/>
  <path id="Path_55" data-name="Path 55" d="M43.53,68.32A9.193,9.193,0,1,1,52.723,77.5,9.09,9.09,0,0,1,43.53,68.32Zm13.187,0a3.994,3.994,0,1,0-3.994,4.1,3.891,3.891,0,0,0,3.994-4.1Z" transform="translate(-35.37 -2.421)" fill="#354f6f"/>
  <path id="Path_56" data-name="Path 56" d="M74.214,59.625V76.117c0,5.836-4.562,8.3-9.176,8.3a8.866,8.866,0,0,1-8.212-4.2l4.441-2.565a3.959,3.959,0,0,0,3.873,2.186,3.443,3.443,0,0,0,3.994-3.718v-1.6a6.129,6.129,0,0,1-5.061,2.255,8.814,8.814,0,1,1,0-17.628A6.18,6.18,0,0,1,69.135,61.4V59.676Zm-5.078,8.332a4.2,4.2,0,1,0-4.2,4.028,3.925,3.925,0,0,0,4.2-4.028Z" transform="translate(-26.907 -2.402)" fill="#354f6f"/>
  <path id="Path_57" data-name="Path 57" d="M68,68.32A9.193,9.193,0,1,1,77.193,77.5,9.09,9.09,0,0,1,68,68.32Zm13.187,0a3.994,3.994,0,1,0-3.994,4.1,3.891,3.891,0,0,0,3.959-4.1Z" transform="translate(-17.715 -2.421)" fill="#354f6f"/>
  <path id="Path_58" data-name="Path 58" d="M80.07,58.033A3.133,3.133,0,1,1,83.2,61.166a3.133,3.133,0,0,1-3.133-3.133Zm.534,4.648h5.165V80.034H80.6Z" transform="translate(-9.006 -5.458)" fill="#354f6f"/>
  <path id="Path_59" data-name="Path 59" d="M104.259,68.3a8.711,8.711,0,0,1-8.28,9.176,6.593,6.593,0,0,1-5.165-2.117v8.608H85.65V59.625h5.165v1.635a6.593,6.593,0,0,1,5.165-2.117,8.711,8.711,0,0,1,8.28,9.158Zm-5.165,0a4.132,4.132,0,1,0-4.235,4.235,3.959,3.959,0,0,0,4.2-4.235Z" transform="translate(-4.98 -2.402)" fill="#354f6f"/>
  <path id="Path_60" data-name="Path 60" d="M111.954,71.77c0,3.994-3.443,5.7-7.23,5.7a7.609,7.609,0,0,1-7.454-4.132l4.51-2.565a2.858,2.858,0,0,0,2.944,2.049c1.257,0,1.876-.4,1.876-1.085,0-1.911-8.608-.9-8.608-6.886,0-3.787,3.2-5.7,6.886-5.7a7.626,7.626,0,0,1,6.783,3.718l-4.528,2.376a2.565,2.565,0,0,0-2.341-1.532c-.9,0-1.446.344-1.446.981C103.416,66.674,111.954,65.349,111.954,71.77Z" transform="translate(3.404 -2.393)" fill="#354f6f"/>
  <path id="Path_61" data-name="Path 61" d="M123.8,59.42V76.773h-5.165V75.155a5.939,5.939,0,0,1-4.958,2.117c-3.443,0-6.49-2.5-6.49-7.2V59.42h5.165v9.9a2.858,2.858,0,0,0,3.116,3.15c1.894,0,3.219-1.1,3.219-3.564V59.42Z" transform="translate(10.561 -2.197)" fill="#354f6f"/>
  <path id="Path_62" data-name="Path 62" d="M145.039,66.343V76.982h-5.165V66.791c0-1.722-.844-2.858-2.5-2.858s-2.72,1.222-2.72,3.271v9.778h-5.165V66.791c0-1.722-.826-2.858-2.5-2.858s-2.7,1.222-2.7,3.271v9.778H119.13V59.629h5.165v1.6a5.337,5.337,0,0,1,4.648-2.083,5.165,5.165,0,0,1,4.545,2.29,5.715,5.715,0,0,1,5.027-2.29C142.439,59.147,145.039,62,145.039,66.343Z" transform="translate(19.176 -2.406)" fill="#354f6f"/>
  <ellipse id="Ellipse_4" data-name="Ellipse 4" cx="3.856" cy="3.856" rx="3.856" ry="3.856" transform="translate(164.765 49.407)" fill="#354f6f"/>
  <circle id="Ellipse_5" data-name="Ellipse 5" cx="18.059" cy="18.059" r="18.059" transform="translate(40.387 0)" fill="#354f6f"/>
  <circle id="Ellipse_6" data-name="Ellipse 6" cx="18.059" cy="18.059" r="18.059" transform="translate(80.756 0)" fill="#354f6f"/>
  <rect id="Rectangle_21" data-name="Rectangle 21" width="36.1" height="36.1" transform="translate(0.034 0)" fill="#354f6f"/>
</svg>
