<svg id="logo7" xmlns="http://www.w3.org/2000/svg" width="178.742" height="41.668" viewBox="0 0 178.742 41.668">
  <path id="Path_226" data-name="Path 226" d="M38.51,11.625h4.528V29.962H38.51Zm6.333,11.439c0-4.542,2.821-7.264,7.053-7.264s7.053,2.722,7.053,7.264-2.722,7.292-7.053,7.292S44.843,27.705,44.843,23.065Zm9.62,0c0-2.5-.973-3.964-2.525-3.964s-2.511,1.411-2.511,3.964.959,3.95,2.511,3.95,2.553-1.4,2.553-3.935Zm6.291,7.843h4.373a2.342,2.342,0,0,0,2.454,1.411c1.735,0,2.638-.931,2.638-2.313V27.466h.014A4.33,4.33,0,0,1,66,29.934c-3.315,0-5.515-2.525-5.515-6.869s2.1-7.053,5.642-7.053a4.33,4.33,0,0,1,4.232,2.666h-.127V16.125h4.486V29.864c0,3.315-2.934,5.388-7.25,5.388-3.921-.014-6.432-1.805-6.686-4.33Zm9.479-7.843c0-2.215-1.016-3.611-2.624-3.611s-2.6,1.411-2.6,3.611.973,3.5,2.6,3.5S70.233,25.364,70.233,23.065Zm6.277,0c0-4.542,2.821-7.264,7.053-7.264s7.053,2.722,7.053,7.264-2.736,7.292-7.053,7.292-7.024-2.652-7.024-7.292Zm9.62,0c0-2.5-.987-3.964-2.525-3.964s-2.511,1.411-2.511,3.964.959,3.95,2.511,3.95,2.553-1.4,2.553-3.935Zm6.319-10.283A2.313,2.313,0,1,1,94.762,15a2.229,2.229,0,0,1-2.285-2.2Zm0,3.329h4.584V30.019H92.519Zm21.073,6.954c0,4.528-2.031,7.151-5.487,7.151a4.33,4.33,0,0,1-4.232-2.581h-.085V34.49H99.191V16.153h4.5v2.483h.085a4.358,4.358,0,0,1,4.232-2.68c3.555-.028,5.6,2.581,5.6,7.123Zm-4.612,0c0-2.2-1.03-3.625-2.624-3.625s-2.6,1.411-2.609,3.625,1.016,3.611,2.609,3.611,2.708-1.312,2.708-3.6Zm12.342-7.278c3.794,0,6.15,1.791,6.178,4.669H123.3c0-1-.832-1.622-2.073-1.622s-1.834.48-1.834,1.2.522.945,1.566,1.157l2.906.592c2.821.592,3.949,1.721,3.949,3.823,0,2.821-2.609,4.739-6.488,4.739s-6.4-1.862-6.587-4.7h4.387c.127,1.03.945,1.636,2.271,1.636s1.947-.423,1.947-1.171-.423-.875-1.509-1.1l-2.624-.55c-2.722-.578-4.147-2-4.147-4.133.085-2.765,2.454-4.528,6.277-4.528ZM142.974,30h-4.387V27.4H138.5a3.978,3.978,0,0,1-4.048,2.892,4.839,4.839,0,0,1-4.979-5.233V16.125H134V24.08c0,1.636.86,2.525,2.271,2.525a2.317,2.317,0,0,0,2.206-1.672,2.344,2.344,0,0,0,.065-.979V16.125h4.514Zm2.186-13.894h4.4v2.68h.1a4.033,4.033,0,0,1,3.964-2.934,3.612,3.612,0,0,1,3.865,2.948h.2a4.232,4.232,0,0,1,4.232-2.948,4.4,4.4,0,0,1,4.556,4.725v9.436h-4.556v-8.28c0-1.411-.663-2.2-1.947-2.2a1.974,1.974,0,0,0-1.989,2.243v8.238h-4.316V21.7c0-1.411-.691-2.158-1.932-2.158a2.012,2.012,0,0,0-1.942,1.421,1.994,1.994,0,0,0-.075.85v8.209h-4.528Z" transform="translate(12.255 1.112)" fill="#354f6f"/>
  <path id="Path_227" data-name="Path 227" d="M44.328,16.166a13.936,13.936,0,0,0-24.2-9.422H2.52V43.9H39.688V26.534a13.922,13.922,0,0,0,4.641-10.367Zm-7.151,0a6.8,6.8,0,1,1-2-4.8,6.8,6.8,0,0,1,2,4.8Zm-4.641,20.58H9.671V13.9h6.968a13.476,13.476,0,0,0-.212,2.271,13.964,13.964,0,0,0,13.95,13.95,13.64,13.64,0,0,0,2.158-.183Z" transform="translate(-2.52 -2.23)" fill="#354f6f"/>
</svg>
