<svg id="Logo1" xmlns="http://www.w3.org/2000/svg" width="206.106" height="46.413" viewBox="0 0 206.106 46.413">
  <path id="Path_200" data-name="Path 200" d="M23.349,9.155V2.4H2.05V48.812h21.3V42.057a16.451,16.451,0,0,1,0-32.9Z" transform="translate(-2.05 -2.4)" fill="#354f6f"/>
  <path id="Path_201" data-name="Path 201" d="M15.45,6.65v32.9a16.451,16.451,0,1,0,0-32.9Z" transform="translate(5.849 0.105)" fill="#354f6f"/>
  <path id="Path_202" data-name="Path 202" d="M33.32,9.25h4.768V32.218H33.32Z" transform="translate(16.383 1.638)" fill="#354f6f"/>
  <path id="Path_203" data-name="Path 203" d="M38,21.845a8.345,8.345,0,1,1,8.3,8.345A8.233,8.233,0,0,1,38,21.845Zm11.953,0a3.624,3.624,0,1,0-3.624,3.719,3.529,3.529,0,0,0,3.592-3.719Z" transform="translate(19.141 4.143)" fill="#354f6f"/>
  <path id="Path_204" data-name="Path 204" d="M66.664,13.932V28.889c0,5.277-4.133,7.518-8.313,7.518A7.948,7.948,0,0,1,50.9,32.592l4.021-2.321a3.608,3.608,0,0,0,3.592,1.987,3.179,3.179,0,0,0,3.56-3.37V27.442a5.611,5.611,0,0,1-4.594,2.035,7.947,7.947,0,0,1,0-15.895,5.611,5.611,0,0,1,4.594,2.035V14.027Zm-4.594,7.55a3.815,3.815,0,1,0-3.815,3.656,3.56,3.56,0,0,0,3.815-3.656Z" transform="translate(25.938 4.188)" fill="#354f6f"/>
  <path id="Path_205" data-name="Path 205" d="M62,21.845a8.345,8.345,0,1,1,8.329,8.345A8.249,8.249,0,0,1,62,21.845Zm11.953,0a3.624,3.624,0,1,0-3.608,3.719,3.529,3.529,0,0,0,3.592-3.719Z" transform="translate(33.288 4.143)" fill="#354f6f"/>
  <path id="Path_206" data-name="Path 206" d="M73.87,12.2A2.829,2.829,0,1,1,76.7,15.029,2.861,2.861,0,0,1,73.87,12.2Zm.461,4.212H79.1V32.147H74.331Z" transform="translate(40.285 1.709)" fill="#354f6f"/>
  <path id="Path_207" data-name="Path 207" d="M96.349,21.832a7.947,7.947,0,0,1-7.582,8.345A5.912,5.912,0,0,1,84,28.254v7.772H79.23V13.965H84v1.478a5.9,5.9,0,0,1,4.768-1.907,7.947,7.947,0,0,1,7.582,8.3Zm-4.768,0a3.751,3.751,0,1,0-3.735,3.847,3.592,3.592,0,0,0,3.735-3.847Z" transform="translate(43.445 4.155)" fill="#354f6f"/>
  <path id="Path_208" data-name="Path 208" d="M104.07,24.977c0,3.624-3.179,5.166-6.549,5.166a6.9,6.9,0,0,1-6.771-3.751l4.1-2.321a2.575,2.575,0,0,0,2.654,1.86c1.129,0,1.7-.35,1.7-.985,0-1.733-7.741-.811-7.741-6.262,0-3.433,2.893-5.15,6.167-5.15a6.9,6.9,0,0,1,6.231,3.354l-4.1,2.162a2.321,2.321,0,0,0-2.114-1.383c-.826,0-1.319.318-1.319.874C96.329,20.351,104.07,19.159,104.07,24.977Z" transform="translate(50.236 4.158)" fill="#354f6f"/>
  <path id="Path_209" data-name="Path 209" d="M115.618,13.8V29.536h-4.768V28.058a5.418,5.418,0,0,1-4.482,1.955c-3.179,0-5.9-2.273-5.9-6.517V13.8h4.768v8.98a2.587,2.587,0,0,0,.13,1.111,2.607,2.607,0,0,0,2.619,1.75c1.717,0,2.925-1.017,2.925-3.179V13.8Z" transform="translate(55.965 4.32)" fill="#354f6f"/>
  <path id="Path_210" data-name="Path 210" d="M135.807,20.037V29.7h-4.768V20.45c0-1.589-.747-2.575-2.257-2.575s-2.464,1.1-2.464,2.956V29.7h-4.768V20.45c0-1.589-.747-2.575-2.257-2.575s-2.464,1.1-2.464,2.956V29.7H112.06V13.965h4.768v1.446a4.865,4.865,0,0,1,4.228-1.876,4.657,4.657,0,0,1,4.117,2.066,5.184,5.184,0,0,1,4.562-2.066C133.454,13.536,135.807,16.111,135.807,20.037Z" transform="translate(62.797 4.155)" fill="#354f6f"/>
  <path id="Path_211" data-name="Path 211" d="M130.817,16.334a3.5,3.5,0,1,0-3.5-3.5A3.5,3.5,0,0,0,130.817,16.334Z" transform="translate(71.792 1.691)" fill="#354f6f"/>
</svg>
