<svg id="Virus" xmlns="http://www.w3.org/2000/svg" width="48" height="48" viewBox="0 0 48 48">
  <path id="Path_157" data-name="Path 157" d="M44,0H4A4,4,0,0,0,0,4V44a4,4,0,0,0,4,4H44a4,4,0,0,0,4-4V4A4,4,0,0,0,44,0ZM2,4A2,2,0,0,1,4,2H44a2,2,0,0,1,2,2V8H2ZM46,44a2,2,0,0,1-2,2H4a2,2,0,0,1-2-2V10H46Z" fill="#3eafff"/>
  <path id="Path_158" data-name="Path 158" d="M5,5a1,1,0,1,0,.9-1.1A1,1,0,0,0,5,5Z" fill="#3eafff"/>
  <path id="Path_159" data-name="Path 159" d="M9,5a1,1,0,1,0,.9-1.1A1,1,0,0,0,9,5Z" fill="#3eafff"/>
  <path id="Path_160" data-name="Path 160" d="M14.92,4.62a1,1,0,1,0-.369,1.213A1,1,0,0,0,14.92,4.62Z" fill="#3eafff"/>
  <path id="Path_161" data-name="Path 161" d="M10,33c.48,0,.42-.06,4.33-3H17v2c0,.54.57.09-3.45,2.11-.6.3-.44.16-1.54,6.73a1.013,1.013,0,0,0,2,.32l.91-5.49,2.53-1.27a7,7,0,0,0,13.14,0l2.53,1.27L34,41.16a1.013,1.013,0,0,0,2-.32c-1.1-6.55-.93-6.43-1.54-6.73-4-2-3.45-1.57-3.45-2.11V30h2.67c3.95,3,3.87,3,4.33,3a1,1,0,0,0,.6-1.8C34.33,28,34.46,28,34,28H31V25.78c3.39-.85,3.72-.78,4-1.46l2-6a1,1,0,0,0-1.9-.64l-1.82,5.48L31,23.73a3,3,0,0,0-2-2.55,6,6,0,0,0-.83-3.93l1.54-1.54a1,1,0,0,0-1.42-1.42l-1.54,1.54a5,5,0,0,0-5.5,0l-1.54-1.54a1,1,0,0,0-1.42,1.42l1.54,1.54A6.15,6.15,0,0,0,19,21.18a3,3,0,0,0-2,2.55l-2.26-.57L13,17.68a1,1,0,1,0-1.9.64l2,6c.23.68.55.61,3.95,1.46V28H14c-.45,0-.22-.09-4.6,3.2A1,1,0,0,0,10,33ZM27,20v1H21V20a3,3,0,0,1,6,0Zm-8,4a1,1,0,0,1,1-1h8a1,1,0,0,1,1,1v8a5,5,0,0,1-10,0Z" fill="#3eafff"/>
  <path id="Path_162" data-name="Path 162" d="M25,30V26a1,1,0,0,0-2,0v4a1,1,0,0,0,2,0Z" fill="#3eafff"/>
  <path id="Path_163" data-name="Path 163" d="M24,34a1,1,0,1,0-.929-.617A1,1,0,0,0,24,34Z" fill="#3eafff"/>
</svg>
